HIERARCHY
ROOT Hips
{
	OFFSET 0.000000 0.000000 0.000000
	CHANNELS 6 Xposition Yposition Zposition Xrotation Yrotation Zrotation
	JOINT Spine
	{
		OFFSET 0.000000 1.832407 0.000002
		CHANNELS 3 Xrotation Yrotation Zrotation
		JOINT Spine1
		{
			OFFSET 0.000000 5.000480 0.000007
			CHANNELS 3 Xrotation Yrotation Zrotation
			JOINT Neck
			{
				OFFSET 0.000000 5.447409 0.000008
				CHANNELS 3 Xrotation Yrotation Zrotation
				JOINT Head
				{
					OFFSET 0.000000 3.463698 0.446933
					CHANNELS 3 Xrotation Yrotation Zrotation
					End Site
					{
						OFFSET 0.000000 4.469283 0.000006
					}
				}
			}
			JOINT LeftShoulder
			{
				OFFSET 0.899998 4.398502 -0.118132
				CHANNELS 3 Xrotation Yrotation Zrotation
				JOINT LeftArm
				{
					OFFSET 3.211441 0.000000 0.000000
					CHANNELS 3 Xrotation Yrotation Zrotation
					JOINT LeftForeArm
					{
						OFFSET 6.297127 0.000000 0.000000
						CHANNELS 3 Xrotation Yrotation Zrotation
						JOINT LeftHand
						{
							OFFSET 5.852364 0.000000 0.000000
							CHANNELS 3 Xrotation Yrotation Zrotation
							End Site
							{
								OFFSET 3.351967 0.000000 0.000000
							}
						}
					}
				}
			}
			JOINT RightShoulder
			{
				OFFSET -0.887581 4.398502 -0.118132
				CHANNELS 3 Xrotation Yrotation Zrotation
				JOINT RightArm
				{
					OFFSET -3.211441 0.000000 0.000000
					CHANNELS 3 Xrotation Yrotation Zrotation
					JOINT RightForeArm
					{
						OFFSET -6.297128 0.000000 0.000000
						CHANNELS 3 Xrotation Yrotation Zrotation
						JOINT RightHand
						{
							OFFSET -5.852364 0.000000 0.000000
							CHANNELS 3 Xrotation Yrotation Zrotation
							End Site
							{
								OFFSET -3.351965 0.000000 0.000000
							}
						}
					}
				}
			}
		}
	}
	JOINT LeftUpLeg
	{
		OFFSET 2.234643 0.000000 0.000000
		CHANNELS 3 Xrotation Yrotation Zrotation
		JOINT LeftLeg
		{
			OFFSET 0.000000 -9.398131 -0.000012
			CHANNELS 3 Xrotation Yrotation Zrotation
			JOINT LeftFoot
			{
				OFFSET 0.000000 -9.852888 -0.000013
				CHANNELS 3 Xrotation Yrotation Zrotation
				JOINT LeftToeBase
				{
					OFFSET 0.000000 -1.452518 3.351964
					CHANNELS 3 Xrotation Yrotation Zrotation
					End Site
					{
						OFFSET 0.000000 0.000000 0.893858
					}
				}
			}
		}
	}
	JOINT RightUpLeg
	{
		OFFSET -2.234643 0.000000 0.000000
		CHANNELS 3 Xrotation Yrotation Zrotation
		JOINT RightLeg
		{
			OFFSET 0.000000 -9.398131 -0.000012
			CHANNELS 3 Xrotation Yrotation Zrotation
			JOINT RightFoot
			{
				OFFSET 0.000000 -9.852888 -0.000013
				CHANNELS 3 Xrotation Yrotation Zrotation
				JOINT RightToeBase
				{
					OFFSET 0.000000 -1.452518 3.351964
					CHANNELS 3 Xrotation Yrotation Zrotation
					End Site
					{
						OFFSET 0.000000 0.000000 0.893858
					}
				}
			}
		}
	}
}
MOTION
Frames: 7
Frame Time: 0.041667
27.449091 19.792877 -1.113240 -167.287657 -26.384568 181.959969 -12.640005 -2.202064 4.680411 19.741427 -0.381777 1.147174 11.210357 10.206669 5.578427 6.709991 11.583263 -12.993152 -8.356163 -0.269479 17.193534 -4.127641 -17.490711 -26.601657 -10.937838 -20.375434 10.736394 -12.931832 -1.329400 -4.956040 -5.716322 -5.851569 -16.662346 21.393034 24.785886 11.829602 80.546638 45.184488 -124.907904 4.655669 5.232261 -27.282991 8.469312 -15.705752 -5.911615 19.725720 -9.554636 -1.729841 -4.324819 7.715030 12.331392 -0.000011 0.000001 -0.000000 -76.394682 9.899757 3.567015 67.247242 1.498785 54.991649 3.411339 -26.091678 6.653325 -0.000000 0.000003 -0.000000 
27.400307 19.779968 -1.136804 -167.484612 -27.155954 182.286247 -12.778199 -2.310881 4.498942 19.575566 -0.447197 1.015128 11.170470 10.198126 5.506981 6.759780 11.563325 -12.912820 -8.329691 -0.257157 17.170787 -4.145451 -17.575803 -26.628457 -11.013209 -20.389766 10.749042 -13.008482 -1.282243 -4.924010 -5.700137 -5.952074 -16.684282 21.115159 24.677557 11.914660 80.992977 45.274203 -125.097032 4.744057 5.199453 -27.255134 8.218778 -15.856629 -6.179578 19.775807 -9.638313 -1.783658 -4.287085 7.221070 12.304737 0.000001 0.000001 0.000001 -75.692819 9.639570 3.704333 66.331983 0.963017 54.514397 3.755064 -25.697028 7.256844 -0.000000 0.000007 0.000004 
27.350151 19.766685 -1.163498 -167.623839 -27.951076 182.618167 -12.896248 -2.421445 4.325262 19.438589 -0.513487 0.877765 11.206478 10.139005 5.487376 6.689750 11.508794 -12.920921 -8.277743 -0.280667 17.188637 -4.337107 -17.602835 -26.729450 -10.986763 -20.357958 10.747596 -12.979576 -1.305670 -4.915964 -5.680216 -6.023944 -16.667542 20.861577 24.511896 11.992272 81.386676 45.356547 -125.278811 4.816552 5.236117 -27.263137 8.039781 -15.839279 -6.460279 19.875640 -9.776867 -1.707445 -4.248604 6.643973 12.303157 0.000001 0.000002 -0.000001 -74.967767 9.394520 3.857881 65.586857 0.297451 53.946996 4.151429 -25.179030 7.859005 -0.000003 0.000002 -0.000001 
27.300159 19.750265 -1.187925 -167.783269 -28.725737 182.981547 -13.001492 -2.488909 4.102825 19.277521 -0.564875 0.754789 11.201273 10.091423 5.472059 6.643331 11.465830 -12.932862 -8.267109 -0.349145 17.166921 -4.473593 -17.591130 -26.752808 -10.944313 -20.327625 10.707693 -12.926990 -1.306101 -4.917974 -5.705846 -6.115542 -16.685607 20.674339 24.378052 12.097428 81.738165 45.401801 -125.463513 4.870966 5.183719 -27.254133 7.828054 -15.915932 -6.745046 19.929027 -9.594890 -1.749076 -4.202424 5.817292 12.333767 0.000000 0.000001 -0.000000 -74.281593 9.185724 4.030003 64.777500 -0.245609 53.271087 4.451766 -24.718880 8.153790 0.000005 -0.000002 -0.000009 
27.248423 19.735682 -1.213499 -167.913739 -29.547976 183.295885 -13.121067 -2.622665 3.967155 19.182764 -0.642886 0.581455 11.137240 10.073641 5.430100 6.625243 11.447191 -12.870271 -8.224474 -0.332937 17.185099 -4.447584 -17.736338 -26.785652 -11.020105 -20.332430 10.780602 -13.014143 -1.258406 -4.893013 -5.716445 -6.172025 -16.700046 20.359530 24.201510 12.269386 82.206716 45.475632 -125.678281 4.968509 5.123996 -27.331055 7.740866 -16.008743 -6.922565 19.927517 -9.765061 -1.793349 -4.267910 5.286361 12.454375 -0.000006 0.000003 -0.000000 -73.505294 8.982708 4.159461 64.021829 -0.907038 52.623790 4.737797 -24.192619 8.452433 0.000016 0.000007 0.000007 
27.196531 19.720295 -1.244457 -168.012873 -30.414525 183.607397 -13.243317 -2.759162 3.740239 19.104167 -0.701610 0.547043 11.095039 10.025594 5.383138 6.581285 11.400961 -12.834078 -8.216536 -0.372615 17.156564 -4.536064 -17.789904 -26.835668 -11.015251 -20.331255 10.787667 -13.010700 -1.274521 -4.849942 -5.677220 -6.322800 -16.702082 20.195145 24.169897 12.295822 82.610359 45.735459 -126.084172 4.653727 5.767006 -26.828689 7.656080 -16.158901 -7.108946 19.920798 -9.807237 -1.797389 -4.271158 4.640557 12.487861 0.000002 0.000001 0.000000 -72.700554 8.755902 4.308672 63.221617 -1.411724 51.763856 4.906727 -23.518776 8.904866 0.000010 0.000003 0.000006 
27.143789 19.702505 -1.268854 -168.161498 -31.220395 183.910821 -13.375408 -2.855302 3.596423 19.021488 -0.766219 0.378095 11.036071 9.984334 5.397665 6.522422 11.370960 -12.870180 -8.176235 -0.409246 17.170167 -4.702227 -17.809179 -26.885723 -10.974044 -20.327440 10.795795 -12.971978 -1.302504 -4.871893 -5.665840 -6.414613 -16.698429 19.798490 24.010335 12.480163 83.025621 45.773039 -126.210886 4.828725 5.597200 -26.946937 7.502559 -16.181775 -7.332055 19.959879 -10.148464 -1.803088 -4.301934 4.261574 12.582363 -0.000007 0.000003 -0.000000 -71.965954 8.526499 4.513100 62.423640 -1.993188 50.824896 5.204223 -23.087578 9.248484 0.000006 0.000002 0.000003 
